<?xml version="1.0" standalone="no"?>
<!DOCTYPE svg PUBLIC "-//W3C//DTD SVG 20010904//EN"
 "http://www.w3.org/TR/2001/REC-SVG-20010904/DTD/svg10.dtd">
<svg version="1.0" xmlns="http://www.w3.org/2000/svg"
 width="64pt" height="64pt" viewBox="0 0 1024.000000 1024.000000"
 preserveAspectRatio="xMidYMid meet">

<g transform="translate(0.000000,1024.000000) scale(0.100000,-0.100000)"
fill="#000000" stroke="none">
<path d="M7066 8945 c-157 -30 -265 -79 -386 -177 -70 -57 -130 -144 -381
-559 -15 -24 -52 -83 -83 -132 -135 -212 -289 -472 -298 -501 -17 -53 7 -163
50 -237 49 -83 124 -164 192 -207 30 -19 56 -36 58 -38 3 -2 -196 -304 -332
-504 -44 -65 -51 -81 -50 -122 0 -45 -3 -50 -63 -110 l-63 -62 0 384 0 385
-24 42 c-21 36 -22 44 -10 51 23 13 54 84 54 125 0 49 -12 71 -71 132 l-49 51
44 37 c65 54 83 108 68 200 -21 119 -91 220 -180 260 -43 18 -69 19 -557 20
l-511 0 -53 -28 c-65 -36 -116 -91 -149 -163 -53 -117 -40 -199 47 -280 50
-47 54 -54 38 -63 -66 -38 -113 -101 -118 -154 -4 -57 1 -73 41 -111 47 -46
49 -66 15 -130 l-25 -47 0 -367 c0 -202 -3 -388 -6 -413 l-6 -45 -192 -4
c-176 -4 -197 -6 -276 -32 -164 -54 -286 -128 -398 -238 -114 -113 -192 -252
-239 -424 l-27 -99 -4 -840 c-3 -899 6 -1280 32 -1380 21 -78 87 -215 134
-279 126 -171 228 -252 422 -334 18 -8 -106 -11 -445 -12 -258 0 -488 -5 -510
-10 -46 -10 -95 -59 -95 -93 0 -12 10 -28 21 -36 35 -21 821 -39 2279 -52
1312 -11 1418 -10 1845 21 72 5 196 9 277 10 81 0 158 4 172 10 32 12 34 42 6
87 -39 64 -29 63 -562 64 l-483 0 58 19 c98 33 179 82 261 160 106 101 158
171 209 282 53 114 63 153 77 293 13 144 12 1971 -1 2078 -15 117 -54 239
-107 336 -37 68 -71 110 -162 201 -125 126 -209 181 -342 227 -40 14 -74 26
-76 28 -1 1 0 10 4 19 5 13 18 16 62 14 54 -2 56 -2 97 46 24 26 61 84 83 129
22 45 60 110 85 144 25 34 57 84 71 111 14 28 43 70 65 95 21 25 41 51 43 58
2 7 21 0 52 -20 141 -89 300 -122 421 -86 86 24 103 45 308 365 257 401 449
725 470 790 48 153 61 339 33 471 -52 246 -228 469 -461 587 -127 64 -260 83
-399 57z m274 -161 c81 -32 197 -113 269 -189 53 -56 81 -97 116 -169 54 -113
65 -164 65 -305 0 -139 -22 -215 -101 -351 -34 -58 -90 -154 -124 -215 -35
-60 -83 -140 -107 -177 -23 -37 -72 -115 -108 -174 -90 -150 -178 -284 -186
-284 -3 0 -40 28 -83 63 -42 35 -93 74 -114 86 -20 12 -43 30 -50 39 -7 9 -33
28 -57 41 -25 13 -74 43 -110 66 -373 241 -499 318 -579 350 -40 16 -75 34
-77 40 -4 10 74 150 166 295 86 135 154 247 190 310 20 36 61 101 91 145 31
44 70 107 89 139 18 33 64 92 102 132 79 83 186 145 290 169 85 19 257 14 318
-11z m-1843 -977 c47 -32 58 -60 58 -151 l0 -81 -551 -3 c-545 -2 -551 -2
-578 19 -23 18 -26 27 -26 84 0 54 4 68 26 94 14 18 36 37 48 44 30 17 190 22
616 19 367 -3 376 -4 407 -25z m626 -386 c15 -8 27 -18 27 -23 0 -5 5 -6 10
-3 8 5 141 -59 168 -81 7 -5 -9 -40 -32 -69 l-24 -29 -58 53 c-68 61 -134 140
-134 159 0 8 3 12 8 10 4 -2 19 -10 35 -17z m-848 1 l50 -7 6 -60 c3 -33 6
-50 7 -38 1 12 7 25 12 28 6 4 8 11 5 16 -4 5 6 14 20 21 15 7 21 14 15 18 -6
4 19 7 57 6 37 -1 74 -5 82 -10 10 -7 12 -5 7 5 -4 8 -1 6 8 -5 26 -32 35
-180 12 -203 -3 -3 -254 -6 -557 -7 l-551 -1 -20 25 c-16 20 -19 36 -16 87 4
70 28 113 69 124 31 9 728 9 794 1z m1233 -229 c20 -15 62 -45 92 -67 30 -22
56 -41 57 -41 4 -2 -122 -213 -215 -360 -41 -66 -98 -156 -125 -200 -122 -194
-113 -190 -233 -110 -47 32 -88 64 -91 71 -6 16 84 175 153 270 29 40 61 89
72 110 11 22 55 82 97 134 42 52 92 123 111 158 20 34 38 62 41 62 2 0 21 -12
41 -27z m-948 -173 c1 -3 2 -180 3 -395 2 -214 6 -397 11 -406 16 -34 -44 -38
-609 -36 l-550 2 -3 423 -2 422 575 -2 c316 -2 575 -5 575 -8z m1222 -62 c-16
-16 -15 -48 1 -52 66 -19 96 -30 92 -35 -2 -4 4 -7 13 -8 9 0 31 -6 47 -12 17
-6 44 -14 60 -18 27 -7 24 -8 -22 -11 -45 -3 -63 3 -130 37 -116 61 -111 56
-83 85 13 15 26 26 29 26 3 0 0 -5 -7 -12z m-817 -673 l43 -26 -39 -77 c-21
-42 -43 -98 -50 -125 -7 -30 -14 -44 -19 -37 -4 7 -7 -2 -6 -21 2 -30 -3 -64
-19 -137 -12 -49 -47 -131 -76 -176 -43 -64 -99 -110 -188 -152 -42 -20 -140
-68 -219 -107 -78 -38 -145 -67 -148 -64 -3 3 -1 14 5 26 19 34 33 220 26 334
l-7 107 32 12 c123 42 385 237 543 402 34 36 66 65 70 66 5 0 28 -11 52 -25z
m-645 -252 l33 -6 -41 -16 c-56 -22 -180 -111 -189 -136 -3 -11 -6 -101 -4
-200 1 -99 -2 -195 -8 -212 -5 -18 -33 -60 -63 -93 l-53 -60 -53 59 c-101 114
-271 205 -447 238 -156 30 -337 -1 -497 -84 -134 -70 -273 -227 -341 -386 -61
-141 -71 -194 -72 -357 0 -143 1 -147 39 -255 49 -141 75 -193 144 -285 46
-62 426 -460 576 -604 22 -22 91 -88 151 -146 134 -128 312 -283 377 -326 66
-45 122 -52 179 -24 50 25 157 99 209 145 182 159 843 819 916 915 66 86 174
292 193 365 20 79 29 220 20 315 -17 194 -109 382 -256 522 -59 55 -167 131
-204 143 -26 9 -24 18 15 75 50 72 67 132 95 334 6 37 12 71 15 74 9 9 128
-28 201 -63 84 -40 209 -144 266 -221 61 -83 114 -197 140 -299 21 -88 22
-110 30 -940 10 -946 6 -1125 -22 -1265 -61 -301 -270 -515 -596 -612 l-78
-23 -1005 0 -1005 0 -84 23 c-158 44 -316 137 -427 253 -80 84 -108 128 -144
227 -60 166 -60 156 -60 1271 0 1109 -1 1081 59 1213 92 205 259 342 493 406
62 17 127 33 143 35 52 7 1321 7 1355 0z m-775 -587 c108 -29 203 -84 285
-166 41 -41 92 -96 113 -122 21 -27 45 -48 54 -48 9 0 37 23 63 51 l47 51 26
-26 c32 -32 45 -30 172 26 50 22 137 59 195 82 127 52 244 110 286 143 l32 24
91 -61 c116 -79 197 -168 254 -278 65 -126 80 -186 79 -317 -2 -289 -93 -430
-596 -928 -414 -410 -609 -593 -640 -601 -33 -8 -50 1 -145 77 -103 84 -840
821 -924 926 -157 194 -205 341 -195 593 7 157 20 199 98 313 98 141 233 237
380 270 80 18 241 13 325 -9z m1095 -3046 c0 -5 -2 -10 -4 -10 -3 0 -8 5 -11
10 -3 6 -1 10 4 10 6 0 11 -4 11 -10z m-922 -7 c-10 -2 -28 -2 -40 0 -13 2 -5
4 17 4 22 1 32 -1 23 -4z m434 -2 c-145 -3 -291 -3 -325 0 -34 3 84 6 263 6
l325 -1 -263 -5z m-1259 -8 c-13 -2 -33 -2 -45 0 -13 2 -3 4 22 4 25 0 35 -2
23 -4z m470 0 c-7 -2 -21 -2 -30 0 -10 3 -4 5 12 5 17 0 24 -2 18 -5z m64 1
c-3 -3 -12 -4 -19 -1 -8 3 -5 6 6 6 11 1 17 -2 13 -5z"/>
<path d="M7160 7175 c0 -48 2 -55 20 -55 18 0 20 7 20 55 0 48 -2 55 -20 55
-18 0 -20 -7 -20 -55z"/>
<path d="M5887 6185 c-4 -8 -2 -17 3 -20 6 -4 10 3 10 14 0 25 -6 27 -13 6z"/>
<path d="M5867 6147 c-3 -8 -1 -20 4 -28 6 -10 9 -7 9 14 0 29 -5 35 -13 14z"/>
<path d="M5831 5954 c0 -11 3 -14 6 -6 3 7 2 16 -1 19 -3 4 -6 -2 -5 -13z"/>
<path d="M5544 5641 c-34 -27 -72 -62 -85 -78 -13 -16 -41 -38 -63 -48 -39
-20 -95 -90 -82 -102 4 -4 57 19 119 51 62 32 102 56 90 53 -20 -4 -21 -3 -12
15 6 11 9 29 6 39 -3 10 -1 17 3 14 5 -3 11 4 15 14 3 11 18 30 33 43 25 21
48 49 40 48 -2 -1 -31 -23 -64 -49z"/>
<path d="M3790 4143 c0 -6 21 -34 48 -60 26 -27 36 -36 22 -19 -14 17 -28 33
-31 36 -3 3 -13 16 -22 30 -9 13 -17 19 -17 13z"/>
<path d="M6034 3942 c-44 -42 -142 -137 -219 -209 -186 -176 -196 -185 -225
-208 -34 -28 -78 -79 -63 -74 29 10 610 569 591 569 -3 0 -41 -35 -84 -78z"/>
<path d="M6328 3583 c7 -3 16 -2 19 1 4 3 -2 6 -13 5 -11 0 -14 -3 -6 -6z"/>
<path d="M4396 3508 c21 -24 58 -61 83 -82 25 -22 10 -3 -34 42 -86 88 -111
108 -49 40z"/>
<path d="M5475 3419 c-4 -6 -15 -13 -26 -17 -11 -5 -15 -12 -10 -20 5 -9 15
-4 36 18 16 16 24 30 17 30 -6 0 -14 -5 -17 -11z"/>
<path d="M6527 3385 c-14 -41 -45 -86 -50 -73 -4 9 -6 7 -6 -4 -1 -9 -7 -19
-13 -21 -8 -3 -6 -6 5 -6 24 -1 22 -27 -3 -34 -13 -3 -22 -17 -26 -36 -6 -26
-8 -28 -21 -15 -17 17 -21 15 -90 -43 -68 -58 -193 -129 -251 -142 -26 -6 -81
-15 -122 -20 -64 -7 -68 -9 -27 -10 32 -1 46 -5 42 -12 -8 -12 66 -7 98 6 10
4 17 3 17 -4 0 -6 -9 -11 -20 -11 -13 0 -20 -7 -20 -20 0 -13 7 -20 19 -20 10
0 21 9 24 20 4 15 14 20 41 20 20 0 36 -5 36 -11 0 -6 21 -9 56 -8 38 2 58 -2
64 -10 14 -23 132 103 179 189 39 73 86 233 79 268 -3 14 -5 14 -11 -3z m-187
-405 c-6 -11 -13 -20 -16 -20 -2 0 0 9 6 20 6 11 13 20 16 20 2 0 0 -9 -6 -20z
m-35 -30 c-3 -5 -10 -10 -16 -10 -5 0 -9 5 -9 10 0 6 7 10 16 10 8 0 12 -4 9
-10z"/>
<path d="M6219 3364 c-5 -15 -8 -29 -5 -31 2 -2 8 10 14 26 13 38 5 41 -9 5z"/>
<path d="M5389 3359 c-13 -13 -28 -23 -32 -21 -5 1 -11 -7 -14 -18 -3 -11 -9
-20 -14 -20 -5 0 -9 -7 -9 -15 0 -17 -16 -20 -25 -4 -8 13 -37 -39 -33 -58 2
-9 15 -3 38 19 20 18 58 52 85 75 37 32 47 45 38 54 -8 8 -17 5 -34 -12z"/>
<path d="M4675 3241 c87 -91 257 -191 326 -191 11 0 39 10 62 21 65 34 187
118 187 131 0 7 -4 7 -13 -1 -10 -8 -17 -7 -27 2 -10 10 -12 9 -7 -5 5 -14 -7
-26 -49 -53 -83 -53 -128 -69 -179 -62 -65 9 -197 81 -275 150 -60 53 -71 56
-25 8z"/>
<path d="M6130 3226 c4 -4 16 -4 26 2 16 9 14 10 -8 9 -15 -1 -23 -6 -18 -11z"/>
<path d="M3490 3170 c0 -6 5 -10 11 -10 5 0 8 -4 4 -9 -3 -5 -1 -12 5 -16 6
-4 8 -11 5 -16 -4 -5 1 -12 9 -15 9 -3 16 -11 16 -17 0 -6 6 -17 14 -26 8 -9
36 -40 62 -68 25 -29 51 -50 57 -46 5 3 7 2 4 -4 -8 -12 31 -42 102 -78 l54
-27 36 36 c21 20 40 33 44 30 4 -4 7 2 7 14 0 15 6 22 20 22 11 0 20 7 20 15
0 11 7 14 25 9 15 -4 25 -2 25 5 0 7 45 12 138 13 l137 1 -185 8 c-183 7 -186
8 -299 48 -63 23 -125 41 -138 41 -14 0 -22 4 -19 9 3 5 -14 15 -39 22 -24 7
-40 16 -34 20 8 5 8 8 0 13 -6 4 -11 4 -11 0 0 -4 -8 0 -17 8 -24 20 -53 30
-53 18z"/>
<path d="M4513 2973 c9 -2 25 -2 35 0 9 3 1 5 -18 5 -19 0 -27 -2 -17 -5z"/>
<path d="M4618 2973 c18 -2 45 -2 60 0 15 2 0 4 -33 4 -33 0 -45 -2 -27 -4z"/>
<path d="M4940 2970 c-20 -6 -21 -8 -5 -8 11 0 31 4 45 8 20 6 21 8 5 8 -11 0
-31 -4 -45 -8z"/>
<path d="M5622 2975 c7 -7 189 -8 196 -1 3 3 -41 6 -98 6 -57 0 -101 -2 -98
-5z"/>
<path d="M5363 2963 c9 -2 23 -2 30 0 6 3 -1 5 -18 5 -16 0 -22 -2 -12 -5z"/>
<path d="M5458 2963 c12 -2 32 -2 45 0 12 2 2 4 -23 4 -25 0 -35 -2 -22 -4z"/>
<path d="M6224 2908 c-3 -5 -10 -6 -15 -3 -5 3 -6 0 -4 -8 4 -8 -7 -19 -27
-29 -18 -9 -28 -17 -22 -17 6 -1 28 10 48 24 20 14 41 25 46 25 5 0 11 4 14 8
2 4 -4 8 -15 8 -11 0 -23 -4 -25 -8z"/>
<path d="M6105 2835 c-25 -12 -26 -14 -5 -9 14 4 29 10 35 15 12 12 5 11 -30
-6z"/>
<path d="M6030 2810 c-8 -5 -10 -10 -5 -10 6 0 17 5 25 10 8 5 11 10 5 10 -5
0 -17 -5 -25 -10z"/>
<path d="M5990 2800 c-9 -6 -10 -10 -3 -10 6 0 15 5 18 10 8 12 4 12 -15 0z"/>
<path d="M4107 4982 c-24 -26 -21 -37 15 -71 40 -37 33 -48 -16 -24 -39 18
-59 13 -80 -20 -8 -13 -3 -23 27 -51 53 -48 49 -56 -27 -49 -58 5 -65 4 -75
-16 -9 -16 -8 -27 3 -50 18 -33 34 -41 86 -41 37 0 40 -3 60 -47 62 -140 203
-199 327 -138 121 60 166 196 106 316 -50 97 -166 155 -261 130 -39 -11 -40
-10 -84 34 -51 50 -58 53 -81 27z m178 -127 c54 -27 70 -83 34 -129 -26 -33
-73 -35 -106 -4 -32 30 -30 78 3 117 30 36 27 35 69 16z"/>
<path d="M5838 4978 c-8 -13 -20 -37 -27 -55 -13 -31 -13 -31 -50 -19 -138 49
-266 6 -320 -109 -42 -89 -24 -186 51 -270 87 -100 240 -102 337 -4 35 34 70
101 71 131 0 13 11 18 51 20 43 2 56 8 72 30 14 19 18 34 13 53 -7 26 -9 27
-54 22 -26 -3 -57 -9 -69 -12 -42 -13 -38 21 6 63 54 51 53 73 -6 127 -27 25
-51 44 -54 45 -4 0 -13 -10 -21 -22z m-200 -141 c36 -38 38 -78 7 -115 -32
-38 -70 -42 -109 -11 -39 31 -37 88 5 123 38 32 69 33 97 3z"/>
<path d="M4770 4655 c-50 -54 -1 -189 93 -252 125 -84 279 -35 348 111 32 68
36 102 14 133 -38 54 -105 31 -105 -37 0 -47 -29 -85 -75 -100 -75 -25 -145
18 -165 100 -17 73 -65 92 -110 45z"/>
<path d="M3412 7050 c-18 -17 -22 -32 -22 -86 0 -90 -18 -130 -67 -143 -21 -6
-64 -11 -95 -11 -46 0 -61 -4 -78 -22 -55 -59 11 -118 132 -118 39 0 50 -5 72
-30 14 -17 28 -47 31 -68 16 -98 28 -133 52 -152 50 -39 83 15 83 136 0 93 16
107 124 114 92 7 120 21 129 66 9 48 -21 68 -112 75 -112 8 -130 25 -140 137
-5 58 -12 86 -25 101 -24 27 -56 27 -84 1z"/>
<path d="M7142 6268 c-5 -7 -14 -42 -21 -77 -6 -36 -15 -69 -20 -74 -5 -5 -37
-11 -72 -14 -75 -7 -89 -15 -89 -54 0 -36 28 -55 97 -64 61 -8 68 -15 78 -75
19 -120 95 -121 111 -2 3 29 12 56 18 59 6 4 38 10 70 14 46 6 64 13 78 31 38
50 12 83 -80 99 -67 12 -66 11 -77 97 -5 36 -13 55 -25 62 -26 14 -56 12 -68
-2z"/>
<path d="M2452 5334 c-21 -14 -33 -62 -12 -49 11 7 77 -60 86 -87 3 -10 10
-18 16 -18 7 0 9 16 4 46 -3 26 -6 55 -6 65 0 22 -34 59 -53 59 -7 0 -23 -7
-35 -16z"/>
<path d="M7440 5332 c-20 -16 -24 -33 -31 -121 -5 -56 -16 -115 -24 -131 -23
-45 -69 -71 -143 -82 -106 -16 -111 -17 -132 -38 -28 -28 -26 -66 5 -86 13 -9
57 -20 96 -25 134 -17 179 -58 199 -182 20 -128 45 -176 81 -156 33 17 47 51
59 139 6 46 18 96 27 110 26 44 76 70 162 85 45 8 90 19 101 25 43 23 49 79
10 100 -10 6 -54 15 -97 21 -43 6 -89 18 -103 26 -50 29 -99 124 -100 193 0
55 -19 108 -43 125 -28 19 -40 19 -67 -3z m103 -301 c85 -102 90 -121 44 -163
-98 -92 -112 -94 -194 -26 -62 51 -64 68 -23 141 17 30 30 62 30 72 0 21 36
55 60 55 9 0 47 -36 83 -79z"/>
<path d="M2430 4594 c0 -10 35 -34 51 -34 31 0 22 14 -16 26 -19 6 -35 10 -35
8z"/>
<path d="M2441 4169 c-12 -13 -21 -42 -25 -77 -15 -136 -19 -153 -40 -184 -30
-45 -84 -73 -192 -98 -53 -12 -99 -28 -108 -39 -21 -23 -20 -54 2 -74 21 -19
195 -44 200 -28 2 5 9 9 15 7 7 -1 9 -1 5 1 -12 7 -9 46 5 63 16 19 85 73 114
88 38 21 87 14 136 -19 25 -16 49 -39 52 -50 8 -23 -12 -79 -27 -79 -6 0 -38
-24 -71 -54 l-62 -54 -25 34 c-23 31 -50 45 -50 26 0 -4 8 -32 19 -62 10 -30
22 -82 26 -115 3 -33 16 -79 27 -103 18 -39 23 -43 52 -40 40 4 51 27 69 150
8 54 23 112 33 129 26 44 76 67 164 75 116 10 162 40 145 94 -9 29 -49 46
-149 63 -71 13 -94 21 -118 44 -53 51 -69 87 -79 185 -7 72 -14 97 -31 115
-27 29 -61 29 -87 2z"/>
<path d="M7427 3873 c-8 -10 -18 -36 -22 -58 -5 -30 -4 -36 4 -25 6 8 11 23
11 33 0 20 2 20 33 6 28 -13 57 -58 58 -91 0 -12 3 -17 6 -10 7 18 -16 133
-29 150 -15 17 -42 15 -61 -5z"/>
<path d="M2298 3653 c7 -3 16 -2 19 1 4 3 -2 6 -13 5 -11 0 -14 -3 -6 -6z"/>
<path d="M7675 3591 c-3 -6 -2 -11 3 -11 10 0 13 -18 13 -69 0 -33 0 -33 40
-28 71 9 103 61 57 91 -31 19 -104 30 -113 17z"/>
<path d="M7122 3580 c-12 -5 -25 -17 -29 -25 -9 -26 17 -65 44 -65 13 0 22 4
19 9 -4 5 -2 11 4 13 5 1 11 19 12 38 3 38 -10 46 -50 30z"/>
<path d="M7488 3307 c-2 -13 -13 -24 -28 -27 -19 -5 -29 -1 -43 19 l-18 26 7
-30 c13 -61 38 -100 63 -100 19 0 27 8 37 35 7 19 13 47 13 61 1 33 -26 47
-31 16z"/>
<path d="M7432 2478 c-1 -7 -4 -27 -8 -44 -8 -39 17 -97 50 -119 52 -34 126 6
126 69 0 21 -47 74 -81 91 -34 18 -85 20 -87 3z"/>
</g>
</svg>
